<?xml version="1.0" encoding="UTF-8"?>
<svg id="Capa_1" data-name="Capa 1" xmlns="http://www.w3.org/2000/svg" viewBox="0 0 200 60">
  <g>
    <path d="M45.76,27.7v19.44c-2.38,2.11-7.95,8.02-20.86,8.02S.5,46.59.5,30.96,11.92,6.84,25.03,6.84c12.44,0,17.8,6.52,19.3,8.15l-7.27,6.32c-1.97-2.17-5.64-5.37-12.03-5.37-7.54,0-13.39,5.5-13.39,15.02s5.98,15.02,13.59,15.02,9.79-2.99,9.79-2.99v-6.93h-9.85v-8.36h20.59Z"/>
    <path d="M68.59,20.29c10.6,0,18.55,6.66,18.55,17.46s-7.95,17.4-18.55,17.4-18.62-6.59-18.62-17.4,8.02-17.46,18.62-17.46ZM76.2,37.55c0-4.96-2.85-8.7-7.61-8.7s-7.61,3.74-7.61,8.7,2.79,8.7,7.61,8.7,7.61-3.74,7.61-8.7Z"/>
    <path d="M108.28,20.29c10.6,0,18.55,6.66,18.55,17.46s-7.95,17.4-18.55,17.4-18.62-6.59-18.62-17.4,8.02-17.46,18.62-17.46ZM115.89,37.55c0-4.96-2.85-8.7-7.61-8.7s-7.61,3.74-7.61,8.7,2.79,8.7,7.61,8.7,7.61-3.74,7.61-8.7Z"/>
    <path d="M156.39,49.99c-2.51,3.4-6.73,5.16-11.21,5.16-9.72,0-15.83-7.61-15.83-17.46s6.12-17.4,15.83-17.4c6.12,0,9.51,3.06,10.6,4.69V7.51h10.87v46.89h-10.33l.07-4.42ZM156.12,37.55c0-5.16-3.13-8.7-7.81-8.7s-7.88,3.53-7.88,8.7,3.19,8.7,7.88,8.7,7.81-3.53,7.81-8.7Z"/>
    <path d="M184.52,47.61c2.72,0,4.62-.68,4.62-2.85s-4.88-3.31-6.12-3.67l-1.82-.53c-4.15-1.22-8.65-3.36-8.65-9.8s5.71-10.53,12.71-10.53,10.94,2.58,12.84,4.15l-3.53,6.39c-1.9-1.49-5.71-3.26-8.43-3.26s-4.01.68-4.01,2.45,2.6,2.53,4.89,3.26l3.6,1.16c6.94,2.22,8.22,6.18,8.22,9.72,0,6.64-5.36,11.08-14.2,11.08-5.03,0-10.33-1.56-14.13-5.16l4.08-6.46c2.72,2.31,7.2,4.08,9.92,4.08Z"/>
  </g>
  <g>
    <polygon points="175.96 14.46 178.71 15.48 175.96 16.5 174.94 19.25 173.92 16.5 171.17 15.48 173.92 14.46 174.94 11.71 175.96 14.46" style="fill: #ffef00;"/>
    <polygon points="186.61 9.43 191.2 11.13 186.61 12.83 184.92 17.41 183.22 12.83 178.63 11.13 183.22 9.43 184.92 4.85 186.61 9.43" style="fill: #00563b;"/>
    <polygon points="196.14 13.4 199.5 14.64 196.14 15.88 194.89 19.25 193.65 15.88 190.29 14.64 193.65 13.4 194.89 10.03 196.14 13.4" style="fill: #87f1ff;"/>
  </g>
</svg>